<?xml version="1.0"?>
<svg width="448" height="512" xmlns="http://www.w3.org/2000/svg" xmlns:svg="http://www.w3.org/2000/svg" xmlns:xlink="http://www.w3.org/1999/xlink">
 <!--! Font Awesome Free 6.5.2 by @fontawesome - https://fontawesome.com License - https://fontawesome.com/license/free (Icons: CC BY 4.0, Fonts: SIL OFL 1.1, Code: MIT License) Copyright 2024 Fonticons, Inc. -->
 <defs>
  <symbol id="svg_2" viewBox="0 0 512 512" xmlns="http://www.w3.org/2000/svg">
   <!--! Font Awesome Free 6.5.2 by @fontawesome - https://fontawesome.com License - https://fontawesome.com/license/free (Icons: CC BY 4.0, Fonts: SIL OFL 1.1, Code: MIT License) Copyright 2024 Fonticons, Inc. -->
   <path d="m416,208c0,45.9 -14.9,88.3 -40,122.7l126.6,126.7c12.5,12.5 12.5,32.8 0,45.3s-32.8,12.5 -45.3,0l-126.6,-126.7c-34.4,25.2 -76.8,40 -122.7,40c-114.9,0 -208,-93.1 -208,-208s93.1,-208 208,-208s208,93.1 208,208zm-280,-24c-13.3,0 -24,10.7 -24,24s10.7,24 24,24l144,0c13.3,0 24,-10.7 24,-24s-10.7,-24 -24,-24l-144,0z"/>
  </symbol>
 </defs>
 <g class="layer">
  <title>Layer 1</title>
  <use fill="#ffffff" id="svg_3" transform="matrix(0.996361, 0, 0, 0.965401, 1.98908, -18.33)" x="0" xlink:href="#svg_2" y="0"/>
 </g>
</svg>